/* XPM */
static char *background[] = {
/* width height num_colors chars_per_pixel */
"   111   112       16            1",
/* colors */
". c #dbdbdb",
"# c #e1e1e1",
"a c #e4e4e4",
"b c #e6e6e6",
"c c #e9e9e9",
"d c #ebebeb",
"e c #ededed",
"f c #efefef",
"g c #f0f0f0",
"h c #f1f1f1",
"i c #f2f2f2",
"j c #f5f5f5",
"k c #f4f4f4",
"l c #fafafa",
"m c #f8f8f8",
"n c #fdfdfd",
/* pixels */
"eebddbfdbkeebd#cddfghgffdddhhdb#debcdbdbcgc#ba#dd#deabd#fjmfcdedga#bfkhaddfifddfbbdifaadadfdbdfdbdddccccdicfdbk",
"kkdghdgeemfgdkgmjkkjmjgd#ckkdbeliicefdebdkecfddkfdijfhjgdkmifijkkddffkicfdddcbcfdbdffddh#bdddhkmddddddddfmihb#g",
"jkdikfiehmgkhlkllmjmllidfgiiedilllijjijefifeihfmgfkkfhmjimljhikgkgkjikmkmjkkigkmkddfgffkdfhkifimfdddfgggkmgebbi",
"kkdkmijgilimkmdhmjjmlljfljiiiikmlnjljhjgfigfgffhiikiddhijlnmhhfdffkmiklmegkjjkikmkikhffimkkmkddhmifhjmmmmhcdhml",
"kkdkmijgjlfkgkcfhikkjkkidfkkhfknfjijfbgfffgigggdkjkgfffkfjmifgfdbbfifgkidgkkkifdikkkfddghffkkffimgdgmmmmmfddjlm",
"fhdiidfdhkbdbebidddddddddcdhkihicifhebffdbdgdffddgdcffdhdfgdbcb#aaddcdedkjkffffdbdiidddfdddghfdffb#bdddfedifdeb",
"dfdifbdcbdbecdbkddbbcddcfdcfjkdbeiegfcgedadgddfacdbaffdfdhfcbcb##adfcdfedfdccddbbdffdddddfhgggfdd##bcbbdcbidcc.",
"dhfmkdhg#ddmkkdkjgddijkibdkmiddighcefefchcgjfffafkddmmgkfkkghjmk#bikefjmdfiikjidghgfffdddikikmmfiddfiffkfbfdhmb",
"mkimljeciikmjiffkjkkmlmkfikjjjjjehjjjiiigjekdmiknkhmmhilmjjmjhfgjkjjjjjjkfklmjmkmifgiihgdhkmmmkimfdkmkhicchdejf",
"kihkkgfhljkkkkmljjkkjmjhfehjmkikijjjjjmlimfkdkfglhfjjffmmkkmjihkikmmmmmmgdiljjjklmmkkiikfhkmmmkkmjjmmjkjddjfglk",
"hijkhegjkfefghklkkigikiffcdkmifimjjjhfgieififmkkmhfkkfdhkiikkkkjfijmmjjmkgjnlmlmmmmkhgkmkmmmmiddijmkghihfklfflk",
"dimmkffgccdfhfefgfedehgdibbhjfdijjifeeeedeefdhgfkffiifddddddffhkeffhkkkkfcdheehfdfgffgiikkkkhdbadgfbbdfddhjbbmk",
"dfhiiigfddfkjiffffdddiifmcbfidfjfefhijjifffcbba#fddfgfdbbbbbcdefifddgkkikdddbcffdfffhkgdddfghgffhgdabhkhbcf#ajj",
"kiffimmmkihkkikmihfdfjmklfcefehmihhijjighgiddbdbffffkjhddffefhihmiedhkjknjkkefkkmmmkkmfbdffhiiiikgcbdkmmfdhbbie",
"mmkfhmmmjhfffgkmjkhfhmmjljgffgklljjgfedcffkdkhmkfffgjlmfkmmkkmjklmjiiikjlhghddhhmlmkikhdkkiihgffkeccdfimjimiffb",
"kjjhfffdifefggkmmjifhjmjlljigijmnliffeeegfkdkgmkcdddimjekmmkkkkfmllmhfimlikjhgkkdkkddfigffggghhgiddeddfmhdmlmkb",
"mmbdffmdkieccdfhkkigeekllljffkkfiijmmiffgkmkhhgfkieeigekffdbdjmklmiikkkjjkmmkkmkmddfhkkdkmkddkmfegifdbcdiijmkff",
"dfbffcfbdbbabcddfffecbcdfigdcdffiggigddddfgdcbb#ggdeifdigecbcefdfddfikkmkffdabdckddddgfbdhgdcfihjkihhijmljffdcb",
"ceemmddcgfdfghfeceiihfffdikebcfkkgffedcdjkfbabddddcdgdcegdbbcbbcfddhkihimigfcdkjkefgefieikkgdbdffdbbdfiklgbabcc",
"ggkllifgjjmmmkhheimmmjkkhjmiddgmmkiiifdemjhddgjmgkijlmijgcbdeddfhgijjheehdffdfmmifkkfgjkmjjjgccfifddfimlmfbbded",
"mgimmjikefkjhddfjmmkhhfdkkkkffgkljkmmkffdfggikkggkimlmijkfdikffkddfkjkikffkjffifeekkefjmkffkjgfkmmlmkkmlljikkif",
"mikhklkjffikidfmmlmigiiehfhkkihkjihkjifekigefkjkdffimidfmkiiifgiddgjmjjmffmlmjjhefjjdejmmihjmkikkmlmifikkkjllmk",
"kilfglkjkedgifimijkffkkfffhjkffgfdcdffddmjgdfkmjgkikljfikkidddddggkjjkkmdcfiefgdffkkddhimmjkiffgmmmmkikkdddgkii",
"dfnfdmgiga.#bbbddfdbabb#ddgkgcbcdb#bddddacfkjkd#cdcdhdbcdgfbacdbddeghgkmjhigccdcddgfaaccdgifddfghfddeffedb#bbbb",
"ihgfgfffkjfdgfdfbdeefikkcklliefiidbejmkfjmldkgkbekgdfda#ddgkkfefjifffdfjifmfljmehfghihhihedhkjmlcfdfbffjddfgdb#",
"dfkjkgfekmifkifhddddilllfijjigjlkmlmiddffhmekfjfdgfdkjgfmjkkiffilmjkfdhmlmlkljmhhhijmmmmddffeddiikfmhljmiiiiihi",
"cfmmkhhijmkgkiefihgimnlmkhhkkijnmkkmmkffhkliidffgjigjmikmkkkkikmlmmkfeimmmlkmjljhikmmllldgkkdbbekidjklhfiiigfij",
"fhiihikmmmfdfdcdkjmmmmidifimkfhmhcbdjmifjkjkiddfmljikifhghkmmkkjjkiiikjmkjmkkkjkhkjjmmmjkmllkddikidkfmdcdefffgi",
"edcdefffkkdbdddffkjifddcffikfdfmedddddeifedhggfijmkfifdgkkkjkfdfhffgkmjkkmmmkkgfdgighkkgkkjmjhfgikejfjffcdeddij",
"cbbceecaffcbdffjdfebabfifggdcdklmhdegikjeebedgddmmkggdbdgeddcbdfffddfhfddhgjgmhfaccbcefdcbbddcbacedidiehfgd##cf",
"feefgfdbffdcfhhjfihddfkmgkkddimmlidfkjkidkdfafdcmmkiidbefdddddfkfihdcdddcfciemhfbddbbfgddbbddcbbbdcididdfid##bd",
"llmkiikjfiedihehmllmmmjiimmfgmmffijhb.aebkffakgifihkmihlmmmlmkkjkllgcdijmlfjdmddmlmhgmmklmmlmjikgkilkmfddghdfml",
"lkffhikmmjjkifgkjmnlkefkfmfjkdfbbfkmiddddfbfbibbjkkmlllkffimmkkjmmkghjmkjfcddfhkkkkkgfddmjkmmkfddbmkfmffiieljli",
"kecddfkmgkmkedfijmlljfhjgjfkkekedddfkkdbfhddbhdfgiiiiigfdddfhgijegiikmmklkfffdddfghihgggkkkjmmkfbbmmimdbkhdmgjc",
"fdddffhkbddddhifigffdbbbfidffdifdbbdghdbdfddadddddfedcddbaabccdffffedddbfddffdcccddddddddfgdddc#cbgecgfejfbdcea",
"dfhkkheddca#emibmkgggeddffddcbccbdffdddfdffdbdbbcddddddhcbbcdcddjidbbba#cbcefdddddddddcbcfgcbba.bacbaeihkfbbbcb",
"fhiiihfejkfdfkfbkfeijjkkhgifddcdddhfdbddhkkfddiigeegifhkiggkjkiijifeffgiihikiffgkihhigfdfkjihkkf#bfjhijdefhedde",
"jmkggkmljmlmiikmkfdfiiffkklmjmhjifddhhdbkkkdffmmjihjjihkjikmlljjigijmmjmiikjjkkmjkikjjkikjjjjjkifkjljklgdhlmjef",
"mmmhfklljiikifklmkikjkgfkinmjlklhfdfiifdifibhdidifijkeekjigkmjihifgjmkikddfkkikmiffgkkigjffikfddllikefnmfilijfj",
"fkkgfffenfbdgdbdbabdggfggdlifjfmdfkkfddffdmdmdb.cdgjgcdjlkgikhfekedfikjlffijkfefhfefikgekcbimhfkfjfkfdlfmkmbfel",
"hdkddhbd#dhfbacfhbddbdkddefdbbdf#abdddffdddkmdaaba#dgcbf#cfifdbababkkeicadddfcbgfikjkdbh.ghdgfdhbeifdfec.ababdf",
"eckhklhmddedbabbdcddcdfddfgfddehbdffddddbbdddddda##dhddmefhikkgfafefejndcdeffdcfbkideifd.ccbffcfbdeddddcdfhfddb",
"kimmmlkmmmkikkihdgffhffifgihffgihkmmifffimmkikmlffdfkddmjighkmjkgmkhdgldgfgiifefafdbdhffbdcdkgdfjhfiigfgcdefhjj",
"mmmjjjkjkhffkmmmklkhlmklikkkkkkjkkmmmkkiimmgfkmhmmjmmddmmkikmjjjmkfmgbiikgijjkkkffdijdelkigjmifinmkmlmmlmjfdejl",
"fgffhimmeeefijlnmlfellkmkkkkjmjkgffhkkhfdkidfkf#egimlfdmkkmllkikfdcjgbkjkdgmkkmjmjklmffnjgimkfhkmifkmkkmlmfbdkm",
"dfdffdkhfghhgimlifccikfdfeddfgfegffgkkfdgkkikmf#cdekmdbfefjlmgegdfefddmdhbfjefmhfmjffffjdbdfddhggeefgffgffdbbdf",
"hmgjicebedddcddedcdfdddbfdccdedddfikigggfgffghd#fddhib.bddfjjfdgjmghddibkcijccidcddbffdfb#bdbekddfhfeeddjjgca##",
"hlklmdd#jkigggffdcjlfehdmieehkifbdiifdfkmmkiffdbgedfhb.bgddkmkijnidmkbfflemmbbfcfa#elgdmebcdbkmcchkfddcafigdcdg",
"lmmmlljfdljcdmjifkkkmjhklmkkkfefdmmdcccekjkfhmjhgikieddfijidfmkcjliifcfdedfgdfkfdfhkhffkjinkmimdmdchgffemjiikjm",
"fikjmmiddjidklmigkikmkffmkkmlmiffmjggffkfefffddfkjmjihkjkkkkkjjkcffkkfjhmkjkfhjimjjmjkkmmjmmgjmglfgmjkkiiikkkgd",
"befddihdmljkllgdgkiimkddfdfjlmiffihijigmkffifbacgiifeehkihikfbchdifkkfjhfdefdilllkhhgfgkmmgmbkhglijlmkjjdfikkif",
"cfd##difmmkkmhcdcfffifcddddfhfdffedgjfdkifdeedccdddcbbddddddb#bdikdddbfemhhfbbddmfcbcccdkiehbdddjfijfdghddeffgk",
"hkgbbfkkdddegdcg#dddfddgiiifbadihfdgjfdgddb#cjjeffddccddbedbbffddfbccbffjfiicbcdmfbbcdddfcfddbebidfdbadddddcbbd",
"mmjiikjkdhgffddkbfihkhimmlmibaelikghjifkhke#bmmdkigfddefimkcdkicekfkkfkfbadhddjlmfddffffdafdkdkffdddabddbcefedd",
"lkijmjkjilmikhfkkmkimmkmjmmkdcindkgeikijmljddgidkihgggfflljfdffcjlmllijhidfidbfjifdfiiiifbfiifkiedffddheadkmmjk",
"lhdfkhimejkfjmkkmjedkkffdfkkfeklafdbdikjhiifddeikkiikkiimigiigimkmijkgmjkdfkddjnhffkmjjmifdmdifiddfkhkjfdimlmjk",
"mkdlklikfdijeilkghhgikjkdffdcfikdimmkkhfdfhkkifekhfgfdfkmfdikfcdddbgkfjjjbdllkmljifdfhhfkkkidcejdkkdcfgcffhkjjk",
"dfdg#bbgccegdfkkkjjkhgggikgcbcdd#cfffgihjidcccdddddffdfiffikdabfbdbfidfdmcdkkikjifcbcdffiigffikkcdddddddccddffd",
"febfdfdfhfcdmmhdikkkhffgcddddkmldgifdfghddcdffdbdcdfighimfdffddddidffdgcmddddfifkfcbabdddcbbfkidkfehgddfgffhkkk",
"mkgjmmhfjlhflmdfdehkigijikkkjmllmlmkfgkkdcdimmkdeefgiiiilgcdkkfdjlfddfmfkggeceifkhddccdhidcfmmjkjigkkhfhihghkkj",
"jmlmgbdihnljjfdmffhkkikmkkjmmmjjijjkijmllmiijmjiigfefffeiiihfdfkklgffgmffimkdfkhiffikkjlkbbkmfekfgffimmimjkkjmm",
"jijfgdkmlmiimmkimkijjhhjddfkjkhgeijkkjmmmjkjmmifjkhffhfdjkhikjkkfjimmkjdfhmmeekhmihmlmkjibbikcbgjmifimkdmjjjmll",
"icedmkmjngdfjlmdlhdhkgfkjhffeb##ekmmkigecdimlmgdikifijkemgcdmljddhfllggcgdikedfdmfdkmkffmkikjkihnjghkidbddcddef",
"abmhk#cdedjk##fhibadgghkecbddddebekkifdbddeffgggddeeijidcddddeddddbiibcbkddfdddbd##djjiifiebcif#jb#ekecddccddee",
"bddddccgkmfffdifikkffikidddegihfidhlkbcmfdfdafk#dddfjfdkcdedbfmjkifegkkgcbbcdffggfgfddd#bcddfgdafgikjjiddfikkii",
"mmkhjkhjjmfikfkejjifgkidjjjifefgfhjmiccfggkfbhjbjkhkmifjddggdijgjkkkkjmmffffgggfhddedhkkfddfhgdbfkjgfkkedfkkkii",
"nlkilmhfllimlmmfkiffjljfjmmkffimcimmifddfimkejmfjkefidbfmjmmikibkkkkjmmlkjmmjkkijgfkjkjllifkmifedkjfekmkdhjjkik",
"kjggmmdbjmhmmkmikihkmmkfkjjkgfhkbfjmkhffdgihimlimjffkgdilkjmjmkdgddgkjkkikkkigfgiffmnjimlhfmmgeifikigikkhikjmjj",
"difdkkgfdgdfecigkkkkkfddmmjkifdcddfkiddkdfddimkfhfccffdifbcfhjmffbbdkkfdedddbbbcbbbglkflecdkiddimgfkkdbckhgijmk",
"dkfcekjmcfdfdbfgeefihfdfkkkkjkfdfddifbbffidcfhddbb##ddcdfaaccdecgcbfkiedhfdcccccddaafdcjcbdhhefkgcbfidbchfefiig",
"djhdfkkjfjikidifeddhkiiidfgikkkkffggeddedjfcfedkiiddkjikmedfdbbakefjmhffkfefkjkhimd#fdbgfddfkmmmbcdcdghffghgfde",
"dmjimlkfkmkmjfhdlkfkmkfddfihfegkdkmhfkkfbjidfdfnjjfejmihliimiffdkijlmffkeddhlnlmflhcjkdkkfcdknljdmmbbikdfkmkddd",
"dijjmljdfkmlkefkmnlfdikfmihjlmkidijkhikjccjfgnjmfkidhlmdmfdgfdflchmmgefikhfikjmlfkmmmllmihfffgikfffcbdffkfdffdd",
"kjjjmmjikkjmkffilljgklmgmkfggfhkkmmkikjmkhlkhmfkjmkgkllklgekmkjndkllmiffljkkkkmlkjmlllmmkkjjjmmlkifdfkkkljihhgi",
"kfdfffgkjkikkhffjifgkkkhjigfddfkikiedgihgdkhfgdkmkgffhikjddimkijehjmjifelmjidccekhimjgfhegiihfgikigfkmmkmjjjked",
"dbbcdcdkkihihfefddikebdkighkiffgddcbdffddcdffdejmfdddbcfkdcfgddffdddfffh.#bdfgjlkedkidbddfgfdbcdfhgfhkkiiihfdcb",
"gddfgdfjgghifddhhimlkdfmifdgkkhhfffegkieigfjjfijmgdffdekkgfhgefkhdbdfffighkjidccjeejmfeijjjiffhkeijifgkkkkfcbdh",
"mjjjkggiffikgdfinjkmlmkkmfcdgkkjjmjkjmkfgidjljljkffijkjmjkkjkijljffkmkffabdkmmjmidekmmmljkkikjmlfmlmiijmijmkhff",
"mlljhgfeffgkkihiljikmmjhlkffgijmmmmkkjkidgbimmlefedhjmjkjkkmmmmmmhhmmkffgefkjiddhffimlmmgedfijjkhjmjkjmlejlljid",
"kllifgheiffkmmkikjjkiikjmjmmjkjmjmjiijmmimdhmkj#fffgjmidljjmllkhjfdhkffkkfdhkkfdjjkijlmkhedfkmkffiihijmmgkkfekl",
"hghhdbdkmmgmjdhfjmmjfdfmfc#mihbijjfegjmjjjiigfijdc#ffmfikhfkmmkfecbdffgifjhhmhdmkffddkjdljgdddddikfccffddimkffi",
"ddehfcbbkfaekffbdfkkfdgmffcidkdeeeccfjjieeeffffidfdkcedkcbbbbba#ighkifddcdbada#ckfgfdijfdddddcb#dedddefdbdfdcdf",
"gffkkgdcgkgjkdmmkmlnmiklfmkhdlmfjjihijieefhihhhhkjfkcddiiifddcddiijmkgfiikikmidfkghfdfkfhhikkiedfffihfgkeffddeg",
"lmkikkjmejijgdmljjmmjhfifmjfflljlnllljhdijjjikiilkbediddmjkigfffikjmkgkldfimnmifmgffdfgdkkihhgffjiijkfhmkkkhikj",
"jkifehmlljcfmmlgjffijjkkffgegimmjllllljeijjgfhigjf#dciddmkghkjiehkmmidfkbbdikkielhfiijjfkkkihgfgkfehhefjfiikjlm",
"eghfegkkkkdfkkmflkgkmmkiidffkdhjjlljjjheeiieeikiiididigmkgegjmkfcdkmkffijkjkfjlmmfgjmlljgkjmkiffdddeghikdfikmll",
"fhhfgkie#fddcbfdkfeffdbbgdidkdijijjighgedijffkkgkidkdifmfdcdegffbcdgfehjkimkcfmkgdfkggkkbdffeddddddfkmjffhkikmm",
"jkfdfkhdhmhkmmnkefikidddbbfbgckibcccehjjcijffhfckd.ccicbkihfgkjmkfdbbbfmddjkbdidbbdfb#bdiiigfgkmcdefjlkbhkkfdfg",
"kkejfkfjjjjkkkifhkjmmmkfikkfdgihjjjjjjiiflnjddijkjffjmkmkmjlbffkkfdlnfjlmkijmjkkmmjjlljfjddkjffjfimdmmmbighkkki",
"ijilkmjljmmmmmmjnlmjjkfdfhgddgihjjlljjjihjmhddgillmjlmikjkmkdchgifdmmdklmigkjkiiijmjmmmkmfekjkikdijfmllfjkfffgk",
"dhflimklfikkhfgimkfhkmmmkkigikkillllljjijjjhfgikkmmmllkkjflgkcjhjkfljciliedfhgfffkmjkjmmmkghjmkgdkihfmkfmjkhgik",
"ddbgdhdimmlljhijljffhhgfmjkikjkijjjjjieegijihhkkgkiijkfkfdkfgdkgjjhmkbekdbbdeedddfhffikikkfdhmkdbgdfagdffikkihf",
"hdadcfcdddddb##bifeghfefffefffffeeeffecbacfheddgjmhdedcedddibfdddedjiadddbbdffffdddddgfdffdcejkd#cbdagfjcfhfefe",
"mkdkfjefkikmkffkbbdikiimdddffffiihhijiec#begdbdfkjgdeddhffdmckdcbcbkjdhhfddfiiiihfeeijiddfddekkfdfdgdfgmdikfdij",
"kjhlkmhjjggjkfeiffklkddhfhkjkfimjjjjljiefegigddhdkkijigkifgjijkdddcjlkmmjhfikkiifhiikmkghiihhikklkjikdfgfjmkimn",
"cginikfmlkkmmgehddjlmfiljmllkefjhfgjjjfdljgiiffhfmlllkdedbfemimegfcklkmjmkgikiffbdfffggfmmmmkikmlhjfmcffbimmmll",
"kjmjfddimifijkfdljfdeghgbimkfgkilieeeffgfmjdfifdjlljedhjadfdfjmijmjfdimlllljeikcigmhmgkdmmmmmkffimnfdmkhhffgkjj",
"kedfkidbgeeikfdbiheddhiffkjkfhkjfccfjkgddkkimlidjmmkffhkfdb#bhfbgihddfkmjfijigfbhfkfmdfddfkmidddmikdcecfdfikkii",
"cdfkkhfiddeihdbbbddbbfdagfddddfihdcfkic#cddhlmfdhgffgffeed#.#dfdhhfddfggmccifdcbfdkfkddbddikiddfmddbbcbf#dgifdc",
"bdimjijlddgkgdcdhmmhimkbgcbccbbeliddedbbefdfjidgfffhhfdddhgc#bfkkigfffedmddecbddddkfmdfdggikkffimddddfdibdffdcb",
"kdbfmmjiiikkiffkimmkkmkcjfdghddfkiggffimhjjmlkilhgijkfddklljdcdfkkikkihfkkmidfidddmimgkhmkikkiikkgkefmiikkhfhik",
"mhdfikkkmjkkigkmefggikfdmkkjkifffijmkijldjlllmjlhfhjkdcdjkkkkkfdjjmlllmldknlijmfddmklimkmmkmmkkmkkmhhmgfljihkml",
"gfggedimmkiigfkmkhgkmkihkjkhfffdfhkjiffidjmkjjiiiddkjfdddddeikkhiijmmkjlefjmiikfddmklimkikmmkhkmifjkiidhmjkigik",
"da#bfkihkhffffgkhcbdebbbgjkdcddcdddddddfilkdeigflfdjlmigcdddccfjdddfdbbdjdcfdbdfddmkmgkiadmmfddmhbfkkfcmjmljfdc",
"dgiffigddedbbdffdbadiiddebdkkddhdfifffdbidgfffciiffjlmifimdffglbfcbefdcd#cdb#bbbfkfigdgdadbadbaiddcbbbdfkgedffe",
"jlmigihdikkgfiifecdhmmigkgfkiddegkjkffginkmigkhlkfegkkikigcigdmdkfdgiffheikkifdahha###fgdhdbihdkkkkighklgfffedd",
"ikiddikgjmjkmmjhmkkmmjgfkkkkikkkkjjkfdilmijfdddkmkhiigijidcjkdkklkgiiffkmkgegkkidkklmgidkkffmlkkgikifgkjikjmmmm",
"kmkfhmnljkkkmlmklmjkkhfdimmkkmmkmkkkfeklhekfddbdjjmmjhfiidfmifjmnmkjkffikhdcdhjmhmkmmfkgmkiimlmkfikgfffghikhffg",
"kkiddijkjigimmmjhfdddfiiimmkikidmigiiikjmklkijegkjmmiddffekkehjkmkijkfeidfhifdddfkfigdhdgikhfkkggjmkikjkmmkebbb",
"dfdbbfihifdfffffgecbcfffdfiffhfcffddfkhdmffbdkfikhffdbdffdkfchggcbdffddfbcddcbcddkgkkdgddfkfbdhdbdfddfhfjkifdde",
"ijjhimlmfddffddfkhdcdgfbbcddfggfcffddkidfba.aheffeeffdfigaffdfdidbcffddkfcaabcgmkkbbaahiffkfadidbddbbcdccbbcdff",
"kjkfdffdffimmkkjgfddimkdfddffeefdmmffmlhhccbflkideimlmkkk.difebmmkkjkhklmgdfiiikdkkmmfhdkhkfadkbmllifikffffijji"
};
