/* XPM */
static char *background[] = {
/* width height num_colors chars_per_pixel */
"    80    80       27            1",
/* colors */
". c #b5ae84",
"# c #ada67b",
"a c #ada884",
"b c #b5ae7b",
"c c #b5b084",
"d c #ada97b",
"e c #adaa84",
"f c #b5b28c",
"g c #b5b384",
"h c #b5b58c",
"i c #b4b584",
"j c #b3b594",
"k c #b2b58c",
"l c #b7bd8c",
"m c #b8bd94",
"n c #c0c694",
"o c #c5ce94",
"p c #bec694",
"q c #cad694",
"r c #c2ce94",
"s c #d8e79c",
"t c #cfde94",
"u c #ddef9c",
"v c #d0de9c",
"w c #d5e794",
"x c #e2f79c",
"y c #d5e79c",
/* pixels */
"gggggiiiihhiffiffghfgfhhhhhhhhhkkkllmmppnpppprrrrrppppppnppnmmmllkkkkkkhhhhgffff",
"fhffiiieihhhhhfihhhhhehhfhhhhhhhkkkkklmlmlnppnrrorrnppnpppppnnnmmllkjjkkkhhhhhhh",
"hhhhhhhhhhhhhhhhhihhhihhhfhhihhhkhkkkkmlmlplpnnorrnpporrorppnnpnlplmmljjkkkkhhhh",
"kkkkkkkkkkkhhkkkkhhhhhhihhfhhhhhhkhhkkkkjmmlplpnnppnoroooooporrpppppplllljjkkkkk",
"kkkkkkkkkkkkkkkkhhkhhhhfeiffffhhihhhhkkkjkkmmmppppnnnooorrorrroonpnnpmmmljmjkkkk",
"klkkkkkkkkkkkkkkhhhhhihhiieiifhhheeiihhhhkkkklmmlpnnonoooororrorrrrronnplmmmmjmk",
"mjlmllkjkjkkkkjjjhhkhhhhhihfeeeefgeeeffihhhhhkjmllpponpooooroqqoooooorppnpnplmml",
"mmlmlllmmllklkkkkhhhhhhieihigeieggeeegiegehhhhhkkllllplnoooooqqqorqooooronnnnnpl",
"plpppplmlmlllkkkjjkkhhhieehgggeeceeeeceggeghhihhhkjkllnrpooroqqqqrooqrrrpponplpp",
"plpnlpplmllmlkjjkjkhhhieeefegecccbbbbdddeeegehefhhhkklllpnnrorqrqrqqqqqooonplrop",
"pponlnppmlllllllkkkkkhhihfieggcdebbbbbd..ddbeegfehhhkkmmmnnnnrorqrqqrqrooorrooro",
"ppnnpplplpmmlmllmmkkkkhhfiiegceedddab.dddadbddeeegeihhkkmmponoorqorroqqoqoorrrrp",
"oonooonpnpppllmmlkkkkkkhhheggcceeddd#a######.bdeeeegehhjmmmlnnporqqoqqorqqrrrrrr",
"rrrrrrprppnnnmpmlklkkkkhfhiieeeee..add########ddddegeihhkjmlppnrrorqoqooqqrrrorr",
"ooooooooooppnnpnmmmmjjkkhhiegeeeeaaad###########abbcgefhhklmplprroqqqqqqqqrorqro",
"oqqooooooonronnnmplmmlkkkhhfhfecc..d.d##########b.a.cehfhhkjmmnpproooqqqqqqqqqqq",
"qrrrrooooooonnnnppmmlmlkjkhhhhfgcccc.bd##########aadecgehhkkklmpnpooooooqqoooorr",
"rqooqorqqqorrorpppnnnmmllkkhhifffgcbc.bdb##########d.ccgfhhkjjlpppooroooqqqqqqqo",
"qoovovvrqvoqroorrrpppmnlmmjkkhhhiegeeeda#d########adaeeegihhkmlmpprroorqoqqooooo",
"qrrqvvvqovovqqqoorronppmpmljkkkhhheggcedddab#######addeegeihhjjmpnnooorqqorooooq",
"qqqvqqoqqqqqoovvqoroponnnpmmjjjkhhhhfeceedddd###bb#db.eccehhhkjmmmnnroooororooqo",
"qqqqqvvqqvooqvvvvvqqorrrppnnlmmjjhhhigggceead#b#b#babddccgiehhkkmnpppproorqqqqqq",
"qqqvqvvvqqqvvqqqqqovoqrooopppmmmjkkhhhffccedddbdb#.abb.ccgeihkjjmmlpprrororrqroq",
"qqoqqqqqqvqqqqvqqqqqvvvqoorrppppmlkkkhhiiggcbeeddaddd.cccgghihkjjlmmnnprrrqorqqq",
"qqqvqvvtqqtqttvqqqvqqqqoqqorooppmmlkkhhhhgggcccbadddddeeeeeeihkkkmllnnnooooqoroo",
"qqqqvvvqtvqqttvtqvttqvvqqqrqorooppplmkkkhhhgeeecdeeeaacccgffehhkkkmplppoooorqorq",
"qoqvqqqqqttqttvtvvttttvqqqvvqqooppnmmlkkkkhfgheeeeeeeeeecgffehhkkkmmpppprorooror",
"ooqqqqqqttvvttttvvvvtvvvttvvqqqooropmpmmkkkhhhffggcceeeeeeeifihhkklmpnpnnoorqrqo",
"qqovqqvqttvqtttttttttvvvvvvvqvqoooorrnpmmjjkhhfhffgeeeeeeeegehhhkklmmppproroorqo",
"rqqqqqqttqttvvttttttttttttttttvqqororopmplmjkhhhfheffgggeffhhhhhhkjmmpnprorroqoq",
"orovqqvqqtqvtvvssyvsvstttwttttttqqvroopnnpmlkkkkhhhihgfgfiiefhhhhkjmmpnpprroroqr",
"roqqqqqqqqqvtvtttttvyywwwwstvvvvvvqqqqoropmpmmjjkkhheeeehhhfhihkhkjmmlppprpooooo",
"qqqqqqqqtvvtvtttttwvvswwwvtyyvvtttttqqvqooonpmmjjkhhhhhihhhhihhhhkmmmnnppppooooq",
"rorooqqqqtvtvttttttvvvwwvwywssywwttvtqvvvroopnlmmmkkkhhhhhihhhkkkkjjmmlppprrooro",
"qqqqqqqqqtqqvtvvvsvvtstvwswyywywwwvtvvtvvvqronnmmmjjjkkkhhhhkhhkhklmmlmpnppprooq",
"rorrqqqqqqtqttttttttvtvtytswyyywwywstwtvtvqooonnnnmllmjjkhkkkkkkjmmmmlnnnppnoooo",
"qqqoroqoqqqqvqvvvvsswvwvwywssssssyswwwtsvvtqqqropppnmmlllkkkkkkjjjmmmlmnnpprrroq",
"orqqqrqqqqqqtttvvvvvttvtswssywwwusywswwwsvtvqqoqorrnnplmmmmmlllmmmmmmnlnpprrroro",
"oorqqorqqqqqqqvtttttttwtwvyyswysssuyyssssyvsvqqovoooopppnmmlmmmmmmmpnlpnooorrooo",
"orqqrqvoooqqqqtvvvtvvvvvstsvywwwyswywywuyysysvvtvooqooonnnmplmlmmlmlplnnrrooooro",
"qqqqorrooqqqqqqqvvtvvvsvvsytvwsssyuuuuuuysyysvstvqqqqororppnpnpnnnnnpnnoooooooqq",
"orrqrooqooqqorqqvqqtvvtttttwtvysywywwwwyyyuwsssysvvtvqvvooooonppppnpprppprrrooro",
"qqqrorooooqrrqqqqqvqqvqqtqttttvvyywywywwwuyyuwssssysvtvvvqqooooorrprorrrrroorrqq",
"orqoroqooqqqoqooooqvqqvqqqqvvvsvvvywssuuyyuyuuyywysyywvvtvqqqoqooorroorroooroooo",
"qqrqqqqrroooqoqorqrrovqqvqqqvttttvvtwssusuywuyyywussssvsvvtqqvvqrqqqqrrqoqqqqooq",
"qqoorrrooooooorooooqrrrrvovqqqqqvvvvvtwwysuywyxuyyuywwsyvvtvvvtqqqrqrvqorqoqqovq",
"qrroooooroorrrrorooorrooooooqqovqqvvvtvswwwyuuuuxuxyyyywsywwttttttqqqtqovvqvqqqq",
"rqvvvqroorroooorrppnprppnororroqvoqqvttvwwsssuuuyyuyuywyuuusyssvwvtttqqqqqqrqqvq",
"qqqorrooroorrroornnpnnnnppnnprroorqvvqqtvvsywysuuxuuyyyuxxuuuswswvwvvvvvqtqvqqqq",
"qqqvoqroorrooppopnnpppppnpppppnpnpoorovqvqttwwsyuuuxuyxxyxxxuuywwsyvwtwttttvvqqq",
"qqooororroorppnppnnmnlmlmnmmnnnppppprorqooqqqtsyssuuyuxxxxxxyxxuuusyytsvvttvvqqq",
"qqqrorqrrrrooonnppnlmlmlmlmlmlmmmmmmnnpporovqqvsvywwwyuxyxxxuyxxxuuuswysvvtvttvt",
"qqroqrorooorpnnnnnppmmmlmlkkkkkkkjlmmnpnnporoqqvvvswwuwuuyyuyxxwuwyyuuswwwttttvq",
"qqqqqrqorrrororrpnmllmlmkkkkkjkjkkjjmklmnppproqvvqvvvsuyuyuxxxuxxuyuuuswywttttqq",
"tqqqqrooororrooonppmlmlklkkkhhhhhkkkkkjmlmmpnnoroqvvvvssywwuxyyxwyuxuuuwwyvyvttv",
"tqqovroroooorpoprppmlmlljjkkjkkhhhhkhhkkkkknmppporovvtttywwyuuyywuwyywuwswyyvttv",
"qqqqqoqorroooororrnnnmmmmkkkkkkhhhhhhkhhkkkmmnmnnrorvqvtttywyywyyywuuuuywysttttv",
"vqqqqqqooqoorqqorrrnpppnmllmkjkhkhkhhhhhkkkkkjlmnpnpooqqqtttywwyyuuuuussywvvvvvv",
"vqqqqrqqqqrqqqvqqoooonnppnpmmmjkkkkkhhhhkhhhjklmmnpporoovqqvvttssywyssyswwttvvvq",
"qvqqqoqvvrqqqvvqqqvvqrorrnnpllmlmkkjjhhkhhhhkkkmmmnmnnnorvqvqttvvtvwtwtywtttvvtq",
"vqqqqqqqqqqqqqqqqqqqqorooorppnpmmmlkkkkkjjjkkkjjjlmmnpprroqqqqtvvttttvvtttttvtqv",
"qqqqqqvvvqqqtqvvttvqtqqqqrqoronnnplmmmmlkkjjjkjjjmlmlppppprqoqqqqqtttvvtttvvtttq",
"qqqqrqqovvqqvqttttttttttqqqvqqoroonnppmmmmmjjjjjjmmmmmpmpprroovqqqvqvvtttqqvtqqq",
"qqvoqqqoorqqqqtttttttwttvttvqqoqoooonppppnmmmlmmmmmmmmpppppppoorrroooqqqqqqqqqqq",
"qorroorrrrqrqqvvtttvtttvttvvvvqvqooropprppppmlmmmmmmmplmnpnpnpopprrorrroorqooqro",
"rrrrrrnnoroorqrqvvqtttvttvttvvtqvvqqoorrpnnlplmpnpmpmmlmppppnllpoopproorrrroroor",
"prpnnnpppnnpnprooroqovqqvvqqqvqvqqrqroponrplmpnmmmlllmmmpmmpplpplmppnrlpprnonnnp",
"pmlmlmpmlmmnlppppnoooooooqqvqqqqrqrrqroonlppllnnlmnlmmnmnmmnllmmlpmmpmpppnnpplpp",
"mmmlmlllkkkkkkjjjmlmppnppooorqoroorrornonnppppnmpmmmmmmmmmmmmllllmmmmmmllmnlmmlm",
"kkkkkkkkkkhhhhhkkkkkjlmmpppnnnnrroorrrrrolplpmnmmmlllmjlkmljmllkkkljjklkkllllkkk",
"kkkhkhhiiiiihhhhhhhkkjkjjmllpppnpppnnonnnnpnpmmmlkljjjjjlkkmkkkkkjjkkkkkkjkkkkjk",
"hhhhiiiiiiiigggegieeihhhkkkkmmmllpnnplolpnlnnmlklkklkkkkkkkkkkkkkhhhkkkkhhkhhhhh",
"hhhhiefgeeeeceeeeeeeeefhhhkkkjjlmmmmplllnmnmllkkkklkkkkkkkhkkkhkhhhkhhhhhhiihhhf",
"gieieegggdeecdeceeeeeeeeeihhhkkkkkmmmmmmmmmmljmjlkkkkhhhkkhhkkkhhhhhhhfffhfhhiih",
"geggeeeeedceebcccbcgeegeiehhhkkkjjmllmmmmmmmmmjjllkkjkkhkhkhhkhhhhihhieiiheieeif",
"igeeeeeeccceddbbbcbcceeefehhhhkkkjkklmmlmlmmmmmmjlllkkkkkkhhkhhhhhhhhfheeifgfege",
"gggegggggbcccbcccccccegfihhihkhkklllmlmlmlmlmpmmlmmmjkkkkkkhkhhhhhhefhihifggegeg",
"eggeggggggeeeeeeedecgeegehhhhhkkkklllmmnmlnlmnmpmlmmlkllkjjkkkkkkhhheeeieehfeege",
"ggeeggggggeeeeegggggeeefehhhhhhkklkllmpmpnnnppppnlmplmmmmmkllkkkhhhhhhhfhihfegee",
"ggifffhhiiiiggeegegfheeeeifihhkkkkklnmmppppppnnppnnnmpnplmlmmmmjkkkkhhihhhhiffif"
};
